<svg xmlns="http://www.w3.org/2000/svg" viewBox="0 0 512 512">
  <rect x="16" y="16" width="480" height="480" rx="104" fill="#1668E3"/>
  <!-- accents -->
  <circle cx="372" cy="120" r="34" fill="none" stroke="#2DE0A6" stroke-width="16"/>
  <rect x="40" y="150" width="70" height="20" rx="10" fill="#FF5A4D" transform="rotate(-18 75 160)"/>
  <polyline points="36,250 70,228 104,258 138,236" fill="none" stroke="#34C6F4" stroke-width="14" stroke-linecap="round" stroke-linejoin="round"/>
  <circle cx="430" cy="210" r="14" fill="#34C6F4"/>
  <circle cx="392" cy="262" r="11" fill="#FF5A4D"/>
  <!-- h! wordmark -->
  <g fill="#ffffff">
    <path d="M148 92 h56 v122 c17-19 41-31 69-31 49 0 77 32 77 85 v125 h-56 V275 c0-27-14-43-40-43-27 0-50 19-50 52 v108 h-56 Z"/>
    <rect x="372" y="92" width="52" height="212" rx="12"/>
    <circle cx="398" cy="402" r="31"/>
  </g>
</svg>
